<?xml version="1.0" encoding="UTF-8"?>
<!DOCTYPE svg PUBLIC "-//W3C//DTD SVG 1.1//EN" "http://www.w3.org/Graphics/SVG/1.1/DTD/svg11.dtd">
<!-- Creator: CorelDRAW 2021 (64-Bit) -->
<svg xmlns="http://www.w3.org/2000/svg" xml:space="preserve" width="3.719mm" height="3.9814mm" version="1.1" style="shape-rendering:geometricPrecision; text-rendering:geometricPrecision; image-rendering:optimizeQuality; fill-rule:evenodd; clip-rule:evenodd"
viewBox="0 0 8.16 8.74"
 xmlns:xlink="http://www.w3.org/1999/xlink"
 xmlns:xodm="http://www.corel.com/coreldraw/odm/2003">
 <defs>
  <style type="text/css">
   <![CDATA[
    .fil0 {fill:#23A6AE}
   ]]>
  </style>
 </defs>
 <g id="Layer_x0020_1">
  <metadata id="CorelCorpID_0Corel-Layer"/>
  <g id="_2696607053664">
   <path class="fil0" d="M3.81 0.18c-0.02,0.06 -0.04,0.09 -0.07,0.16 -0.07,0.19 -0.09,0.37 -0.09,0.58 -0.37,0 -0.48,0.08 -0.75,0.16 -0.06,0.05 -0.14,0.07 -0.2,0.12 -0.07,0.05 -0.12,0.08 -0.19,0.13 -0.15,0.12 -0.2,0.2 -0.32,0.33 -0.28,0.34 -0.48,0.85 -0.54,1.42 -0.09,0.9 -0.21,2.55 -0.66,3.27 -0.37,0.6 -0.84,0.37 -0.96,0.51 -0.03,0.04 -0.11,0.26 0.16,0.26 1.31,0.01 2.63,-0 3.94,-0 1.31,0 2.63,0.02 3.93,-0 0.15,-0.12 0.14,-0.3 -0.12,-0.32 -0.2,-0.01 -0.35,-0.05 -0.48,-0.14 -0.65,-0.45 -0.79,-2.09 -0.89,-2.84 -0.1,-0.75 -0.04,-1.34 -0.48,-2 -0.34,-0.5 -0.79,-0.88 -1.59,-0.91 0,-0.28 -0.07,-0.91 -0.41,-0.92 -0.14,-0 -0.19,0.09 -0.24,0.15 -0.03,0.03 -0.01,0.01 -0.04,0.03z"/>
   <path class="fil0" d="M4.84 7.67l-1.52 0c-0.11,0 -0.12,0.45 0.1,0.74 0.13,0.17 0.35,0.33 0.67,0.33 0.87,-0 0.94,-1.06 0.76,-1.06z"/>
  </g>
 </g>
</svg>
