<?xml version="1.0" encoding="UTF-8"?>
<!DOCTYPE svg PUBLIC "-//W3C//DTD SVG 1.1//EN" "http://www.w3.org/Graphics/SVG/1.1/DTD/svg11.dtd">
<!-- Creator: CorelDRAW 2021 (64-Bit) -->
<svg xmlns="http://www.w3.org/2000/svg" xml:space="preserve" width="7.112mm" height="3.2173mm" version="1.1" style="shape-rendering:geometricPrecision; text-rendering:geometricPrecision; image-rendering:optimizeQuality; fill-rule:evenodd; clip-rule:evenodd"
viewBox="0 0 42.54 19.24"
 xmlns:xlink="http://www.w3.org/1999/xlink"
 xmlns:xodm="http://www.corel.com/coreldraw/odm/2003">
 <defs>
  <style type="text/css">
   <![CDATA[
    .fil0 {fill:black}
   ]]>
  </style>
 </defs>
 <g id="Layer_x0020_1">
  <metadata id="CorelCorpID_0Corel-Layer"/>
  <path class="fil0" d="M4.56 4.05c-2.47,3.69 -4.27,2.09 -4.56,5.57 2.12,-0.57 3.88,-2.92 5.57,-4.05 0.73,0.49 3.59,2.91 4.05,3.55 -1.07,2.01 -2.84,3.67 -3.04,6.08 1.8,-0.48 3.79,-4.1 4.05,-5.06 2,0.47 3.57,1.56 5.57,2.03 0,2.96 -0.95,4.36 -1.01,7.09 2.15,-0.58 2.46,-3.54 2.53,-6.58 4.05,0 3.21,0.28 6.58,-0.51 0.29,1.24 0.64,2.62 0.85,3.7 0.46,2.3 0.32,2.39 1.68,2.88 0.59,-1.43 -0.52,-4.99 -1.01,-7.09 2.63,-0.22 3.11,-1.45 5.57,-2.03 0.92,1.74 2.52,4.55 4.05,5.57 1.03,-2.23 -0.75,-2.26 -3.04,-6.58 2.54,-1.34 2.54,-2.19 4.56,-3.54 1.11,1.66 3.05,3.84 5.57,4.05 -0.66,-2.47 -2.9,-2.58 -4.56,-5.06 0.51,-1.92 0.99,-1.28 1.52,-3.54 -3.17,0.35 -0.02,-0.55 -3.66,3.43 -7.14,7.79 -16.87,9.86 -26.22,3.16 -1.38,-0.98 -2.52,-2.11 -3.62,-3.47 -0.54,-0.67 -0.93,-1.36 -1.48,-2.06 -0.73,-0.94 -0.61,-1.19 -1.98,-1.56 0.22,2.7 0.88,2.35 2.03,4.05z"/>
 </g>
</svg>
