<?xml version="1.0" encoding="UTF-8"?>
<!DOCTYPE svg PUBLIC "-//W3C//DTD SVG 1.1//EN" "http://www.w3.org/Graphics/SVG/1.1/DTD/svg11.dtd">
<!-- Creator: CorelDRAW 2021 (64-Bit) -->
<svg xmlns="http://www.w3.org/2000/svg" xml:space="preserve" width="3.9388mm" height="3.6125mm" version="1.1" style="shape-rendering:geometricPrecision; text-rendering:geometricPrecision; image-rendering:optimizeQuality; fill-rule:evenodd; clip-rule:evenodd"
viewBox="0 0 11.05 10.13"
 xmlns:xlink="http://www.w3.org/1999/xlink"
 xmlns:xodm="http://www.corel.com/coreldraw/odm/2003">
 <defs>
  <style type="text/css">
   <![CDATA[
    .fil0 {fill:#23A6AE}
   ]]>
  </style>
 </defs>
 <g id="Layer_x0020_1">
  <metadata id="CorelCorpID_0Corel-Layer"/>
  <path class="fil0" d="M4.53 0.02c-3.94,0.48 -5.63,4.7 -3.77,7.72 2.24,3.65 6.93,2.27 7.12,1.39 0.05,-0.24 -0.02,-0.47 -0.19,-0.6 -0.39,-0.3 -0.86,0.1 -1.24,0.24 -3.53,1.31 -7.03,-2.77 -4.41,-6.22 0.23,-0.3 0.55,-0.56 0.84,-0.76 2.06,-1.45 4.21,-0.09 4.42,-0.08 0.28,0.02 0.46,-0.11 0.54,-0.28 0.53,-1.13 -2.29,-1.54 -3.3,-1.41z"/>
  <path class="fil0" d="M9.32 4.5l-4.01 0c-1.14,0 -1.05,1.14 -0.05,1.13l4.06 0c-0.18,0.28 -0.77,0.68 -0.84,0.98 -0.13,0.56 0.51,0.95 0.93,0.56 0.32,-0.3 0.61,-0.62 0.93,-0.94 0.26,-0.26 0.7,-0.57 0.71,-1.14 0.01,-0.6 -0.39,-0.86 -0.68,-1.16 -0.31,-0.32 -0.61,-0.61 -0.93,-0.93 -0.43,-0.42 -1.06,-0.06 -0.96,0.48 0.06,0.34 0.67,0.76 0.85,1.02z"/>
 </g>
</svg>
