<?xml version="1.0" encoding="UTF-8"?>
<!DOCTYPE svg PUBLIC "-//W3C//DTD SVG 1.1//EN" "http://www.w3.org/Graphics/SVG/1.1/DTD/svg11.dtd">
<!-- Creator: CorelDRAW 2021 (64-Bit) -->
<svg xmlns="http://www.w3.org/2000/svg" xml:space="preserve" width="7.4104mm" height="7.4279mm" version="1.1" style="shape-rendering:geometricPrecision; text-rendering:geometricPrecision; image-rendering:optimizeQuality; fill-rule:evenodd; clip-rule:evenodd"
viewBox="0 0 25.64 25.7"
 xmlns:xlink="http://www.w3.org/1999/xlink"
 xmlns:xodm="http://www.corel.com/coreldraw/odm/2003">
 <defs>
  <style type="text/css">
   <![CDATA[
    .fil0 {fill:#1787F3}
    .fil1 {fill:white}
   ]]>
  </style>
 </defs>
 <g id="Layer_x0020_1">
  <metadata id="CorelCorpID_0Corel-Layer"/>
  <rect class="fil0" y="-0" width="25.64" height="25.7" rx="12.82" ry="9.46"/>
  <g id="_2696146167072">
   <path class="fil1" d="M9.89 12.78c-0.45,0.14 -1.21,0.8 -1.48,1.04 -1.26,1.14 -2.36,3.47 -2.21,5.32l13.25 0c0.11,-1.4 -0.52,-2.99 -1.09,-3.94 -0.52,-0.85 -1.75,-2.16 -2.6,-2.43 -0.2,0.13 -0.36,0.34 -0.59,0.5 -1.4,1.04 -3.33,1.02 -4.72,-0.02 -0.21,-0.16 -0.36,-0.35 -0.56,-0.48z"/>
   <path class="fil1" d="M12.53 6.58c-1.86,0.18 -3.4,1.73 -3.22,3.82 0.16,1.85 1.78,3.38 3.84,3.21 1.82,-0.16 3.37,-1.78 3.19,-3.84 -0.16,-1.81 -1.79,-3.38 -3.8,-3.19z"/>
  </g>
 </g>
</svg>
