<?xml version="1.0" encoding="UTF-8"?>
<!DOCTYPE svg PUBLIC "-//W3C//DTD SVG 1.1//EN" "http://www.w3.org/Graphics/SVG/1.1/DTD/svg11.dtd">
<!-- Creator: CorelDRAW 2021 (64-Bit) -->
<svg xmlns="http://www.w3.org/2000/svg" xml:space="preserve" width="3.9339mm" height="3.9388mm" version="1.1" style="shape-rendering:geometricPrecision; text-rendering:geometricPrecision; image-rendering:optimizeQuality; fill-rule:evenodd; clip-rule:evenodd"
viewBox="0 0 10.34 10.35"
 xmlns:xlink="http://www.w3.org/1999/xlink"
 xmlns:xodm="http://www.corel.com/coreldraw/odm/2003">
 <defs>
  <style type="text/css">
   <![CDATA[
    .fil0 {fill:#23A6AE}
   ]]>
  </style>
 </defs>
 <g id="Layer_x0020_1">
  <metadata id="CorelCorpID_0Corel-Layer"/>
  <path class="fil0" d="M2.8 5.42c-0.06,-0.48 0.08,-1.06 0.32,-1.46 0.1,-0.17 0.14,-0.21 0.25,-0.35l0.22 -0.22c0.09,-0.08 0.32,-0.25 0.44,-0.31 0.28,-0.15 0.55,-0.24 0.92,-0.28 0.36,-0.04 0.74,0.02 1.05,0.13 0.43,0.16 0.76,0.4 1.05,0.74 0.62,0.74 0.71,1.88 0.21,2.72 -0.12,0.2 -0.23,0.34 -0.4,0.5l-0.16 0.14c-0.09,0.08 -0.23,0.18 -0.35,0.24 -0.86,0.46 -1.75,0.38 -2.55,-0.15 -0.27,-0.18 -0.55,-0.51 -0.7,-0.79 -0.15,-0.28 -0.24,-0.54 -0.28,-0.91zm1.59 -3.48c-0.18,0.02 -0.54,0.17 -0.72,0.26 -0.07,0.04 -0.15,0.09 -0.22,0.12l-0.36 -0.35c-0.12,-0.12 -0.24,-0.24 -0.36,-0.36 -0.27,-0.26 -0.2,-0.24 -0.78,0.34 -0.12,0.12 -0.23,0.23 -0.35,0.35 -0.28,0.28 -0.16,0.23 0.37,0.78 0.06,0.06 0.12,0.13 0.18,0.18 0.04,0.04 0.16,0.14 0.18,0.19 -0.08,0.16 -0.12,0.2 -0.22,0.44 -0.06,0.15 -0.15,0.46 -0.17,0.49 -0.12,0.01 -0.88,0 -1.06,0 -0.33,-0 -0.26,0.08 -0.26,0.79 0,0.72 -0.07,0.79 0.26,0.79 0.18,-0 0.94,-0.01 1.06,0 0.02,0.03 0.1,0.34 0.17,0.49 0.1,0.24 0.14,0.27 0.22,0.44 -0.02,0.04 -0.66,0.67 -0.71,0.72 -0.27,0.27 -0.23,0.21 0.34,0.78 0.12,0.12 0.23,0.23 0.35,0.35 0.23,0.22 0.23,0.18 0.43,-0.01 0.12,-0.12 0.24,-0.23 0.36,-0.35l0.37 -0.36c0.17,0.08 0.19,0.11 0.44,0.22 0.08,0.03 0.15,0.06 0.23,0.09 0.07,0.02 0.2,0.05 0.26,0.08 0.01,0.11 0,0.88 0,1.06 -0,0.33 0.08,0.26 0.79,0.26 0.72,0 0.79,0.07 0.79,-0.26 -0,-0.18 -0.01,-0.95 0,-1.06 0.08,-0.04 0.4,-0.11 0.71,-0.27 0.07,-0.04 0.15,-0.09 0.22,-0.12 0.05,0.03 0.67,0.67 0.72,0.71 0.2,0.2 0.21,0.23 0.42,0.02l0.72 -0.72c0.04,-0.05 0.15,-0.12 0.15,-0.22 -0.01,-0.09 -0.1,-0.15 -0.16,-0.21l-0.54 -0.53c-0.04,-0.04 -0.16,-0.14 -0.18,-0.19 0.08,-0.17 0.12,-0.19 0.22,-0.44 0.03,-0.08 0.06,-0.15 0.09,-0.23 0.02,-0.07 0.05,-0.2 0.08,-0.26 0.12,-0.01 0.88,-0 1.06,-0 0.24,0 0.26,-0.02 0.26,-0.26l0 -1.06c0,-0.34 -0.08,-0.26 -0.79,-0.26 -0.16,0 -0.38,0.01 -0.53,-0 -0.02,-0.04 -0.1,-0.34 -0.17,-0.49 -0.03,-0.08 -0.07,-0.15 -0.1,-0.22 -0.04,-0.07 -0.09,-0.15 -0.12,-0.22 0.02,-0.04 0.14,-0.15 0.17,-0.18 0.06,-0.05 0.12,-0.12 0.18,-0.18 0.12,-0.12 0.25,-0.24 0.36,-0.36 0.27,-0.27 0.23,-0.21 -0.34,-0.78 -0.12,-0.12 -0.23,-0.23 -0.35,-0.35 -0.05,-0.05 -0.12,-0.15 -0.22,-0.15 -0.09,0.01 -0.15,0.1 -0.21,0.16l-0.72 0.71c-0.17,-0.08 -0.19,-0.11 -0.44,-0.22 -0.16,-0.07 -0.45,-0.15 -0.49,-0.17 -0.01,-0.1 -0,-0.88 -0,-1.06 0,-0.33 -0.08,-0.26 -0.79,-0.26 -0.72,0 -0.79,-0.07 -0.79,0.26 0,0.36 0,0.71 0,1.07zm-0.3 -0.25c0,-0.21 0,-0.41 0,-0.62 0,-0.29 -0.03,-0.55 0.23,-0.7 0.17,-0.09 0.66,-0.06 0.87,-0.06 0.21,0 0.7,-0.04 0.87,0.06 0.26,0.15 0.23,0.41 0.23,0.7 0,0.21 0,0.41 -0,0.62 0.02,0.04 0.03,0.03 0.08,0.05 0.13,0.04 0.46,0.2 0.52,0.21 0.18,-0.16 0.62,-0.68 0.8,-0.76 0.26,-0.11 0.46,0.04 0.56,0.16l0.73 0.74c0.1,0.11 0.34,0.29 0.2,0.6 -0.08,0.19 -0.59,0.62 -0.76,0.8 0,0.01 0.24,0.58 0.25,0.6 0.35,0.03 0.97,-0.06 1.18,0.07 0.15,0.09 0.21,0.24 0.21,0.4l-0 1.25c-0,0.17 -0.07,0.31 -0.22,0.4 -0.21,0.12 -0.89,0.04 -1.17,0.07 -0.04,0.05 -0.09,0.23 -0.12,0.3 -0.03,0.07 -0.11,0.23 -0.12,0.29 0.12,0.13 0.26,0.27 0.39,0.39 0.09,0.09 0.31,0.29 0.36,0.41 0.12,0.29 -0.08,0.5 -0.26,0.66l-0.64 0.64c-0.12,0.1 -0.29,0.34 -0.6,0.2 -0.13,-0.06 -0.32,-0.28 -0.42,-0.37 -0.13,-0.13 -0.26,-0.26 -0.39,-0.39 -0.06,0.01 -0.22,0.1 -0.3,0.13 -0.04,0.01 -0.29,0.09 -0.3,0.13 0,0.21 0,0.41 0,0.62 0,0.21 0.02,0.39 -0.07,0.55 -0.09,0.15 -0.24,0.21 -0.4,0.21l-1.24 0c-0.1,-0 -0.17,-0.01 -0.25,-0.06 -0.06,-0.04 -0.12,-0.09 -0.16,-0.15 -0.09,-0.16 -0.07,-0.34 -0.07,-0.55 0,-0.74 0.05,-0.62 -0.15,-0.69 -0.11,-0.04 -0.36,-0.17 -0.45,-0.18 -0.13,0.12 -0.27,0.26 -0.39,0.39 -0.09,0.09 -0.29,0.31 -0.41,0.36 -0.26,0.11 -0.46,-0.04 -0.56,-0.16 -0.04,-0.05 -0.07,-0.06 -0.1,-0.1l-0.59 -0.59c-0.02,-0.02 -0.03,-0.03 -0.05,-0.05 -0.1,-0.12 -0.34,-0.29 -0.2,-0.6 0.08,-0.19 0.59,-0.61 0.76,-0.8 -0,-0.01 -0.24,-0.58 -0.25,-0.59 -0.34,-0.03 -0.96,0.06 -1.18,-0.07 -0.15,-0.09 -0.21,-0.24 -0.21,-0.4l0 -1.25c0,-0.17 0.07,-0.31 0.22,-0.4 0.21,-0.12 0.89,-0.04 1.17,-0.07l0.25 -0.6c-0.16,-0.18 -0.68,-0.62 -0.76,-0.8 -0.1,-0.24 0.04,-0.45 0.16,-0.56 0.11,-0.1 0.19,-0.2 0.29,-0.29l0.2 -0.2c0.02,-0.02 0.03,-0.02 0.05,-0.05l0.24 -0.24c0.11,-0.12 0.32,-0.26 0.56,-0.15 0.18,0.08 0.62,0.59 0.8,0.76 0.07,-0.01 0.22,-0.09 0.3,-0.13 0.05,-0.02 0.11,-0.04 0.16,-0.06 0.05,-0.02 0.12,-0.03 0.14,-0.07zm-2.34 -0.36l0.02 0.02c0,-0 0,0.01 0.01,0.01 -0.02,0.18 -0.12,0.31 -0.27,0.38 -0.05,0.02 -0.12,0.02 -0.13,-0.05 -0.06,0.04 -0.14,0.14 -0.2,0.19 -0.06,0.06 -0.13,0.13 -0.19,0.2 -0.11,0.16 -0.17,0.39 -0.11,0.62 0.08,0.31 0.46,0.57 0.72,0.85 -0.01,0.04 -0.03,0.08 -0.05,0.13 -0.03,0.08 -0.03,0.1 -0.06,0.11 -0.24,-0 -0.48,-0.01 -0.72,-0 -0.24,0 -0.37,0.09 -0.51,0.2 -0.32,0.26 -0.24,0.78 -0.24,1.19 0,0.41 -0.08,0.92 0.24,1.19 0.14,0.11 0.28,0.19 0.52,0.2 0.24,0 0.47,0 0.71,-0 0.04,0.01 0.1,0.2 0.11,0.24 -0.12,0.13 -0.26,0.26 -0.38,0.38 -0.12,0.12 -0.25,0.22 -0.32,0.44 -0.07,0.22 -0.02,0.44 0.08,0.62 0.04,0.06 0.3,0.35 0.37,0.38 0,-0 0.01,-0.01 0.01,-0.01l0.02 -0.01c0.14,0.03 0.17,0.04 0.27,0.13 0.07,0.07 0.12,0.17 0.13,0.28 -0.03,0.03 0.06,0.03 -0.04,0.02 0.06,0.05 0.13,0.13 0.19,0.19 0.21,0.21 0.46,0.37 0.82,0.25 0.28,-0.09 0.57,-0.47 0.82,-0.71l0.23 0.1c0.03,0.52 -0.1,0.89 0.2,1.24 0.27,0.32 0.77,0.24 1.19,0.24 0.42,0 0.93,0.08 1.2,-0.24 0.29,-0.35 0.17,-0.73 0.19,-1.24l0.24 -0.09c0.29,0.24 0.53,0.64 0.89,0.72 0.53,0.12 0.81,-0.34 1.02,-0.54 -0.04,0 -0.04,0.04 -0.1,0.06 0.04,-0.26 0.31,-0.43 0.41,-0.39 0.04,-0.02 0.16,-0.14 0.2,-0.18 0.06,-0.07 0.12,-0.11 0.18,-0.21 0.1,-0.17 0.15,-0.39 0.08,-0.61 -0.09,-0.29 -0.47,-0.55 -0.71,-0.82l0.1 -0.23c0.53,-0.03 0.88,0.11 1.24,-0.2 0.11,-0.09 0.22,-0.28 0.23,-0.49l-0 -1.42c-0.04,-0.4 -0.36,-0.67 -0.75,-0.67 -0.24,-0 -0.47,-0 -0.71,0 -0.04,-0.01 -0.1,-0.2 -0.11,-0.24 0.11,-0.12 0.25,-0.25 0.37,-0.37 0.11,-0.11 0.25,-0.22 0.33,-0.42 0.11,-0.31 0,-0.61 -0.21,-0.81 -0.05,-0.04 -0.14,-0.16 -0.19,-0.18 -0.1,0.05 -0.28,-0.08 -0.33,-0.13 -0.03,-0.03 -0.08,-0.09 -0.1,-0.15 -0.02,-0.06 -0.04,-0.13 -0.02,-0.17 -0.02,-0.06 -0.3,-0.32 -0.39,-0.37 -0.17,-0.1 -0.4,-0.14 -0.61,-0.07 -0.28,0.09 -0.56,0.47 -0.81,0.71l-0.23 -0.1c-0.03,-0.52 0.1,-0.89 -0.2,-1.24 -0.27,-0.32 -0.77,-0.24 -1.19,-0.24 -0.43,0 -0.93,-0.08 -1.2,0.24 -0.29,0.35 -0.17,0.73 -0.19,1.24l-0.24 0.09c-0.13,-0.11 -0.26,-0.26 -0.38,-0.38 -0.12,-0.12 -0.22,-0.26 -0.43,-0.33 -0.22,-0.07 -0.43,-0.04 -0.61,0.07 -0.07,0.04 -0.32,0.26 -0.37,0.35 -0.01,0.02 -0.01,0.01 -0.01,0.02zm7.31 0.45c-0.02,-0.05 -0.07,-0.08 -0.11,-0.12 -0.04,-0.04 -0.07,-0.07 -0.11,-0.11 -0.06,-0.06 -0.16,-0.18 -0.23,-0.21 -0.03,0.04 -0.01,0.11 0.02,0.17 0.02,0.06 0.07,0.11 0.1,0.15 0.05,0.05 0.23,0.17 0.33,0.13zm-7.72 6.86c0.03,0.06 0.13,0.15 0.19,0.2 0.07,0.07 0.12,0.13 0.2,0.2 0.1,0.01 0.01,0.01 0.04,-0.02 -0.01,-0.1 -0.06,-0.21 -0.13,-0.28 -0.1,-0.09 -0.14,-0.1 -0.27,-0.13l-0.02 0.01c-0,0 -0.01,0.01 -0.01,0.01zm0.04 -6.94c0.01,0.06 0.08,0.07 0.13,0.05 0.15,-0.08 0.25,-0.2 0.27,-0.38 -0,-0 -0.01,-0.01 -0.01,-0.01l-0.02 -0.02c-0.05,0.02 -0.06,0.05 -0.1,0.09 -0.03,0.03 -0.06,0.06 -0.09,0.09 -0.06,0.06 -0.14,0.12 -0.18,0.18zm7.34 7.26c0.07,-0.06 0.28,-0.25 0.31,-0.32 -0.1,-0.05 -0.38,0.13 -0.41,0.39 0.07,-0.02 0.06,-0.06 0.1,-0.06z"/>
 </g>
</svg>
