<?xml version="1.0" encoding="UTF-8"?>
<!DOCTYPE svg PUBLIC "-//W3C//DTD SVG 1.1//EN" "http://www.w3.org/Graphics/SVG/1.1/DTD/svg11.dtd">
<!-- Creator: CorelDRAW 2021 (64-Bit) -->
<svg xmlns="http://www.w3.org/2000/svg" xml:space="preserve" width="3.9335mm" height="3.5849mm" version="1.1" style="shape-rendering:geometricPrecision; text-rendering:geometricPrecision; image-rendering:optimizeQuality; fill-rule:evenodd; clip-rule:evenodd"
viewBox="0 0 9.65 8.8"
 xmlns:xlink="http://www.w3.org/1999/xlink"
 xmlns:xodm="http://www.corel.com/coreldraw/odm/2003">
 <defs>
  <style type="text/css">
   <![CDATA[
    .fil0 {fill:#23A6AE}
   ]]>
  </style>
 </defs>
 <g id="Layer_x0020_1">
  <metadata id="CorelCorpID_0Corel-Layer"/>
  <path class="fil0" d="M5.66 8.11c0.54,-0.57 1.05,-1.1 1.43,-1.5 1.11,-1.18 1.55,-1.62 1.86,-1.97 1.58,-1.78 0.33,-4.64 -1.95,-4.64 -0.56,0 -0.97,0.22 -1.68,0.77l-0.49 0.46 -0.48 -0.46c-0.77,-0.66 -1.33,-0.77 -1.69,-0.77 -2.4,0 -3.51,2.84 -1.89,4.64 0.13,0.15 0.69,0.73 1.65,1.77 0.39,0.42 0.93,1 1.34,1.44 0.23,0.25 0.8,0.95 1.07,0.95 0.3,0 0.65,-0.48 0.85,-0.69z"/>
 </g>
</svg>
